<?xml version="1.0" standalone="no"?>
<!DOCTYPE svg PUBLIC "-//W3C//DTD SVG 20010904//EN"
 "http://www.w3.org/TR/2001/REC-SVG-20010904/DTD/svg10.dtd">
<svg version="1.0" xmlns="http://www.w3.org/2000/svg"
 width="277.000000pt" height="277.000000pt" viewBox="0 0 277.000000 277.000000"
 preserveAspectRatio="xMidYMid meet">
<metadata>
Created by potrace 1.11, written by Peter Selinger 2001-2013
</metadata>
<g transform="translate(0.000000,277.000000) scale(0.100000,-0.100000)"
fill="#000000" stroke="none">
<path d="M0 1385 l0 -1385 1385 0 1385 0 0 1385 0 1385 -1385 0 -1385 0 0
-1385z m652 1289 c15 -14 24 -15 61 -4 27 7 88 10 160 8 110 -3 117 -5 158
-33 23 -16 56 -47 73 -68 31 -39 31 -39 28 -145 -2 -75 -8 -115 -19 -132 -18
-30 -72 -80 -85 -80 -6 0 -50 -16 -99 -36 -49 -20 -94 -34 -101 -31 -7 2 -27
-1 -45 -9 -18 -7 -54 -16 -80 -20 -26 -3 -64 -12 -83 -19 -19 -8 -48 -16 -65
-20 -39 -8 -75 -32 -75 -48 0 -8 -24 -55 -52 -106 -29 -50 -60 -104 -68 -120
-31 -57 -106 -150 -121 -151 -9 0 -24 9 -34 20 -17 19 -17 21 11 61 71 101
106 159 188 314 32 62 75 173 83 218 3 16 18 53 34 83 16 29 29 59 29 67 0 7
13 46 29 87 16 41 32 99 36 128 4 28 9 52 13 52 3 0 14 -7 24 -16z m1725 -16
c22 -24 24 -69 5 -105 -6 -11 -11 -28 -10 -39 1 -20 -8 -100 -17 -149 -8 -43
-47 -158 -57 -169 -4 -6 -8 -18 -8 -28 0 -9 -8 -34 -19 -55 -43 -88 -60 -127
-57 -131 3 -2 16 4 30 13 14 9 40 21 58 25 18 5 67 20 108 34 41 14 84 26 97
26 12 0 25 5 28 10 11 18 41 11 65 -15 23 -25 23 -25 4 -40 -10 -7 -28 -18
-39 -23 -64 -27 -184 -91 -218 -115 l-40 -29 29 -19 c16 -10 39 -19 51 -19 36
0 185 -58 211 -82 13 -13 32 -35 43 -49 l19 -27 -34 8 c-18 4 -38 10 -44 14
-6 3 -50 18 -98 31 -116 34 -188 71 -230 118 l-36 39 -22 -21 c-12 -12 -26
-21 -32 -21 -14 0 -87 -79 -119 -127 -15 -24 -30 -43 -33 -43 -15 0 -52 46
-52 64 0 12 22 44 48 71 65 68 99 115 107 147 4 15 13 32 21 39 8 6 14 21 14
33 0 11 9 36 20 54 11 18 20 40 20 50 0 10 5 23 11 29 24 24 88 240 99 333 7
52 16 103 21 112 5 10 9 28 9 41 0 42 17 48 47 15z m-741 -703 c-1 -41 0 -75
1 -75 2 0 30 28 62 63 53 56 65 64 117 75 55 11 59 11 82 -10 21 -20 22 -24 7
-35 -9 -6 -34 -14 -55 -18 -29 -5 -51 -19 -87 -58 -49 -52 -113 -139 -113
-154 -1 -4 -10 -19 -21 -32 l-20 -24 -28 27 c-26 25 -27 31 -20 69 4 23 8 96
9 163 0 66 3 124 7 127 4 4 19 -4 33 -18 25 -24 27 -32 26 -100z m-521 75 c22
-22 25 -30 13 -30 -24 0 -6 -56 31 -94 16 -17 34 -47 40 -67 14 -45 66 -99 95
-99 13 0 33 -11 46 -24 21 -24 21 -26 5 -42 -15 -16 -19 -16 -51 0 -19 9 -39
16 -45 16 -35 0 -129 104 -129 142 0 17 -36 108 -43 108 -1 0 -3 -34 -3 -75
-1 -53 -6 -86 -20 -112 -31 -63 -44 -73 -87 -73 -31 0 -49 8 -89 41 -58 49
-78 84 -78 136 0 31 8 45 47 85 26 26 52 48 58 48 5 1 28 16 50 35 33 29 48
35 86 35 37 0 50 -5 74 -30z m-504 -606 l27 -26 -18 -44 c-11 -24 -26 -77 -34
-116 -8 -40 -25 -102 -36 -138 -11 -36 -33 -103 -47 -150 -51 -164 -65 -205
-84 -241 -10 -20 -19 -46 -19 -57 0 -11 -11 -40 -25 -63 -14 -24 -25 -51 -25
-60 0 -9 -11 -41 -24 -71 l-24 -55 61 31 c34 16 71 33 82 37 25 8 185 80 290
130 66 31 95 53 163 123 46 48 97 111 113 142 28 50 30 62 24 110 -3 29 -11
56 -16 59 -5 4 -9 15 -9 25 0 41 -44 91 -133 154 -51 35 -103 76 -116 90 -14
14 -29 26 -35 26 -12 0 -96 80 -96 92 0 4 14 8 30 8 29 0 130 -55 144 -79 4
-6 22 -18 41 -27 45 -21 158 -125 197 -181 41 -61 65 -143 64 -228 -1 -59 -5
-74 -24 -93 -12 -12 -22 -27 -22 -32 0 -6 -42 -53 -92 -106 -65 -66 -113 -106
-158 -130 -35 -19 -68 -34 -73 -34 -4 0 -54 -22 -110 -48 -56 -27 -118 -54
-137 -62 -19 -7 -81 -35 -137 -62 -77 -38 -103 -55 -105 -72 -3 -23 -33 -32
-74 -22 -23 6 -23 7 -8 31 9 13 13 29 9 35 -3 6 5 24 19 41 14 17 29 42 32 56
4 13 17 46 29 71 12 26 25 58 29 72 4 14 17 50 30 80 26 60 34 83 77 210 16
47 37 105 45 130 9 25 25 79 35 120 11 41 26 89 33 105 8 17 17 57 21 89 4 32
14 71 21 85 8 14 14 33 14 42 0 16 9 29 19 29 3 0 17 -12 32 -26z m1276 -46
c39 -40 97 -98 129 -129 33 -31 78 -76 100 -100 50 -53 148 -142 161 -146 5
-2 14 7 20 20 6 12 33 47 60 77 26 30 66 77 88 104 38 47 54 69 117 164 37 54
41 56 72 23 24 -25 25 -29 11 -41 -8 -7 -15 -18 -15 -24 0 -7 -11 -23 -25 -36
-14 -13 -25 -28 -25 -34 0 -11 -141 -192 -164 -210 -23 -18 -87 -116 -107
-163 -11 -25 -19 -60 -19 -77 2 -63 -8 -162 -20 -206 -7 -25 -16 -119 -20
-210 -12 -232 -20 -260 -65 -210 -13 15 -16 28 -11 57 4 21 11 116 16 211 5
96 11 181 15 190 10 25 34 292 28 308 -2 7 -24 24 -46 38 -94 56 -330 308
-385 411 -12 22 -8 55 8 55 4 0 39 -33 77 -72z m-356 5 c14 -16 33 -41 43 -56
25 -41 75 -188 96 -284 10 -45 27 -106 39 -137 11 -30 32 -102 46 -158 14 -57
46 -164 70 -239 41 -125 57 -219 37 -219 -4 0 -22 15 -39 32 -34 36 -63 97
-63 134 0 14 -4 32 -10 42 -15 26 -60 180 -60 204 0 21 -1 21 -214 15 -175 -5
-217 -3 -234 8 -18 13 -21 12 -31 -13 -20 -50 -68 -217 -76 -262 -4 -25 -10
-49 -14 -55 -3 -5 -6 -12 -7 -15 -11 -57 -51 -140 -67 -140 -17 0 -47 32 -47
49 0 9 6 25 13 36 14 21 28 64 52 160 16 67 50 167 65 193 6 9 26 60 46 112
20 52 41 104 49 115 7 11 16 36 20 55 4 19 22 68 41 108 19 40 34 79 34 86 0
8 7 19 15 26 8 7 15 19 15 26 0 17 13 40 58 106 17 26 32 54 32 61 0 42 56 48
91 10z"/>
<path d="M723 2603 c-24 -2 -44 -7 -44 -11 -1 -4 -3 -16 -4 -27 -3 -20 -28
-95 -48 -145 -5 -14 -11 -34 -13 -45 -1 -11 -16 -46 -33 -77 -17 -32 -31 -67
-31 -78 0 -11 -5 -29 -12 -40 -18 -28 -7 -32 40 -16 22 8 62 18 89 22 26 4 63
14 83 22 19 9 41 14 49 13 8 -1 24 2 35 8 12 5 53 23 91 39 97 41 118 76 112
183 -5 81 -16 112 -51 141 -17 14 -39 17 -121 16 -55 -1 -119 -3 -142 -5z"/>
<path d="M964 1938 c-60 -40 -104 -94 -104 -126 0 -44 26 -72 65 -72 31 0 36
5 60 52 21 42 25 63 23 113 l-3 61 -41 -28z"/>
<path d="M1489 1292 c-30 -36 -56 -78 -69 -112 -7 -19 -18 -41 -24 -48 -5 -8
-11 -23 -13 -35 -2 -11 -13 -36 -26 -56 -12 -20 -21 -37 -19 -39 1 -1 -4 -15
-12 -31 -9 -16 -13 -30 -11 -33 2 -2 -11 -35 -30 -73 -19 -38 -35 -73 -35 -77
0 -8 400 -1 408 6 1 2 -5 30 -13 62 -9 32 -20 94 -25 136 -14 118 -54 236
-100 295 -16 21 -18 21 -31 5z"/>
</g>
</svg>
